<?xml version="1.0" encoding="UTF-8" standalone="no"?>
<svg xmlns:dc="http://purl.org/dc/elements/1.1/" xmlns:cc="http://creativecommons.org/ns#" xmlns:rdf="http://www.w3.org/1999/02/22-rdf-syntax-ns#" xmlns:svg="http://www.w3.org/2000/svg" xmlns="http://www.w3.org/2000/svg" xmlns:sodipodi="http://sodipodi.sourceforge.net/DTD/sodipodi-0.dtd" xmlns:inkscape="http://www.inkscape.org/namespaces/inkscape" width="100" height="100" preserveAspectRatio="xMidYMid meet" version="1.1" id="svg30" sodipodi:docname="Hyūga_Symbol.svg" inkscape:version="1.0.2 (e86c870879, 2021-01-15)">
  <title id="title118">Símbolo do Clã Hyuuga</title>
  <defs id="defs34">
    <pattern id="EMFhbasepattern" patternUnits="userSpaceOnUse" width="6" height="6" x="0" y="0"/>
  </defs>
  <sodipodi:namedview pagecolor="#ffffff" bordercolor="#666666" borderopacity="1" objecttolerance="10" gridtolerance="10" guidetolerance="10" inkscape:pageopacity="0" inkscape:pageshadow="2" inkscape:window-width="1360" inkscape:window-height="705" id="namedview32" showgrid="false" inkscape:zoom="2.8284271" inkscape:cx="2.5492399" inkscape:cy="57.133306" inkscape:window-x="-8" inkscape:window-y="-8" inkscape:window-maximized="1" inkscape:current-layer="svg30"/>
  <metadata id="metadata23">Created by Lukas Pessoa Dantas<rdf:RDF>
  <cc:Work rdf:about="">
    <dc:format>image/svg+xml</dc:format>
    <dc:type rdf:resource="http://purl.org/dc/dcmitype/StillImage"/>
    <dc:title>Símbolo do Clã Hyuuga</dc:title>
    <dc:date>26/05/2021</dc:date>
    <dc:creator>
      <cc:Agent>
        <dc:title>Lukas Pessoa Dantas</dc:title>
      </cc:Agent>
    </dc:creator>
    <dc:publisher>
      <cc:Agent>
        <dc:title>Wiki Naruto</dc:title>
      </cc:Agent>
    </dc:publisher>
    <dc:source>Michi Guidebook</dc:source>
  </cc:Work>
</rdf:RDF>
</metadata>
  <path id="svg_2" d="m 44.017838,18.131938 c 1.016788,2.170082 1.778932,4.640617 1.974502,5.486559 0.664808,2.923974 0.859802,4.430824 0.859802,6.343442 0,1.820569 -0.05858,2.298767 -0.48887,3.347034 -0.782168,1.986075 -1.661369,3.181903 -4.007973,5.499082 -2.815841,2.795196 -3.636708,3.788881 -4.55581,5.499082 -1.486129,2.795288 -2.151963,5.590631 -2.132387,8.992805 0.258246,3.353495 1.234778,6.23992 3.813947,9.048262 2.151034,1.930936 3.989331,2.849293 7.118099,3.584958 2.248817,0.533248 5.514227,0.606388 7.548,0.146689 2.757211,-0.588467 5.358629,-2.095869 6.962116,-4.026816 2.617432,-3.294598 3.99436,-8.462297 2.775336,-12.137694 -0.293349,-0.809212 -0.781491,-1.820309 -1.074753,-2.243281 -0.801744,-1.084996 -2.6007,-2.537887 -3.774001,-3.016087 l -0.99676,-0.42218 -0.02092,-3.677982 C 57.929778,38.243977 57.821739,36.634708 57.392335,34.652438 56.590588,31.83874 54.421296,27.645548 52.524557,25.27323 50.62772,22.900913 47.669824,20.127673 45.56244,18.983454 44.560555,18.439473 44.017834,18.131938 44.017834,18.131938 Z m 6.239353,9.255701 c 0.161163,0.03376 0.569616,0.565567 1.131819,1.508044 1.52528,2.537825 2.386443,4.911094 2.836207,7.77993 0.254199,1.526377 0.312058,6.72926 0.09701,7.078682 0,0 -0.134886,0.05575 -0.644851,0.184257 -1.350943,0.34042 -2.951624,0.680715 -4.300914,1.434698 -1.505802,0.845942 -3.129225,2.354859 -3.754977,3.513403 -1.036462,1.912526 -0.899597,4.284631 0.351909,6.050062 1.407921,2.004485 3.051824,3.034474 6.100413,2.758486 1.671614,-0.345634 2.839896,-0.956169 3.540026,-2.096592 0.516186,-0.980745 0.640979,-1.825508 0.507893,-2.740597 -0.245594,-1.688688 -0.62583,-1.838989 -0.62583,-1.838989 -0.03174,0.207481 -0.390436,0.882225 -0.722843,1.525932 -0.762687,1.471146 -1.604853,2.060814 -2.954144,2.060814 -1.681693,0 -2.775388,-0.810155 -3.264206,-2.391761 -0.410708,-1.34246 1.193066,-3.493526 3.3441,-4.486563 1.310138,-0.588477 3.441117,-0.918838 4.41885,-0.679783 1.838207,0.478109 3.442081,1.949166 4.106889,3.751325 1.251507,3.383765 -0.822162,8.918771 -4.087865,10.978486 -2.600797,1.636735 -5.767836,1.985357 -9.248583,1.010729 -3.324333,-0.919489 -5.475965,-2.500469 -6.825157,-5.075113 -1.564433,-2.960794 -1.525504,-6.491561 0.078,-10.445392 0.997213,-2.445866 1.937055,-3.696227 4.987615,-6.638612 0.977735,-0.956309 2.052978,-2.078342 2.385381,-2.482995 0.919103,-1.140134 1.994006,-3.273743 2.326413,-4.652931 0.332502,-1.324142 0.530018,-5.09438 0.275822,-5.921911 -0.03104,-0.108939 -0.05892,-0.183609 -0.05892,-0.183609 z" sodipodi:nodetypes="ccscccccccccccccccccccccsccccccscsccccccccccccccc" style="stroke-width:0.944481"/>
  <path style="fill:#ffffff;stroke-width:0.189094" d="m 0.82115669,13.773749 c -0.4219,-1.528053 0.68125501,-2.678524 2.31748501,-2.416879 0.87226,0.139478 0.725169,-0.05865 6.509275,8.767806 1.9423843,2.964059 3.6010913,5.463109 3.6860313,5.553448 0.085,0.09034 0.86334,-0.428751 1.72983,-1.153541 8.51375,-7.121541 18.2371,-11.08356 29.3525,-11.960424 15.10428,-1.191529 29.13783,3.43685 39.8088,13.129256 l 1.59183,1.445894 0.38685,-0.623621 c 0.21278,-0.342995 1.92438,-2.963674 3.80358,-5.823724 1.87921,-2.860056 3.78888,-5.795753 4.24382,-6.523763 0.45493,-0.728016 1.02229,-1.634571 1.2608,-2.014564 1.05004,-1.672825 3.76826,-0.785747 3.75721,1.226144 -0.005,0.648066 -0.20875,1.091374 -1.15284,2.490267 -48.09601,72.854722 0,0 -48.09601,72.854722 -49.19916131,-74.951021 0,0 -49.19916131,-74.951021 z M 83.603688,30.469081 82.456618,29.402114 c -10.08495,-9.38056 -25.1513,-14.475195 -38.30415,-12.952415 -9.88524,1.144469 -19.21417,5.08835 -26.80462,11.331869 l -1.74958,1.439107 0.72049,1.077562 c 33.73204,51.238515 0,0 33.73204,51.238515 33.55289,-51.067671 0,0 33.55289,-51.067671 z" id="path49" sodipodi:nodetypes="cssccsscsssccccccssscccc"/>
</svg>
